<svg width="156" height="41" viewBox="0 0 156 41" fill="none" xmlns="http://www.w3.org/2000/svg">
<g id="Julia Savchuk Logo 1" clip-path="url(#clip0_1702_34)">
<path id="Vector" fill-rule="evenodd" clip-rule="evenodd" d="M0 0H40.9565V41H0V0ZM0.521739 0.522293V40.4777H40.4348V0.522293H0.521739Z" fill="#2B384C"/>
<path id="Vector_2" fill-rule="evenodd" clip-rule="evenodd" d="M156 0H40.4346V41H156V0ZM155.478 0.522293V40.4777H40.9563V0.522293H155.478Z" fill="#2B384C"/>
<path id="Vector_3" d="M23.2697 7.57324H17.948L24.9915 28.4127H16.6958L18.4175 23.242H12.9393L9.65234 33.4267H31.5654L23.2697 7.57324Z" fill="url(#paint0_linear_1702_34)"/>
<path id="Vector_4" d="M56.4991 11.7463V16.8645C56.4991 17.8383 56.2254 18.5993 55.6776 19.1475C55.13 19.6957 54.3534 19.9698 53.348 19.9698C52.6288 19.9698 52.0445 19.8389 51.5947 19.5771C51.1452 19.3152 50.8346 18.947 50.6629 18.4724C50.4912 17.9978 50.4586 17.4537 50.5648 16.84L52.2078 16.5454C52.1097 17.2655 52.1548 17.7851 52.3426 18.1042C52.5307 18.4233 52.8782 18.5829 53.3848 18.5829C53.9162 18.5829 54.284 18.4192 54.4883 18.0919C54.7009 17.7646 54.8071 17.2778 54.8071 16.6313V11.7463H56.4991Z" fill="#2B384C"/>
<path id="Vector_5" d="M65.2374 11.7463V16.6559C65.2374 17.7605 64.9431 18.5911 64.3546 19.1475C63.7661 19.6957 62.9078 19.9698 61.7798 19.9698C60.6518 19.9698 59.7936 19.6957 59.205 19.1475C58.6165 18.5911 58.3223 17.7605 58.3223 16.6559V11.7463H60.0143V16.5822C60.0143 17.2614 60.1572 17.7646 60.4434 18.0919C60.7377 18.4192 61.1832 18.5829 61.7798 18.5829C62.3764 18.5829 62.8178 18.4192 63.104 18.0919C63.3902 17.7646 63.5331 17.2614 63.5331 16.5822V11.7463H65.2374Z" fill="#2B384C"/>
<path id="Vector_6" d="M68.8776 18.4847H73.1443V19.8471H67.1855V11.7463H68.8776V18.4847Z" fill="#2B384C"/>
<path id="Vector_7" d="M76.2418 11.7463V19.8471H74.5498V11.7463H76.2418Z" fill="#2B384C"/>
<path id="Vector_8" d="M85.3703 19.8471H83.617L82.9426 17.871H79.8406L79.1663 19.8471H77.4375L80.3924 11.7463H82.4154L85.3703 19.8471ZM80.2207 16.6191H82.5625L81.3855 13.0842L80.2207 16.6191Z" fill="#2B384C"/>
<path id="Vector_9" d="M92.9268 11.6235C93.6625 11.6235 94.3082 11.7504 94.8641 12.004C95.42 12.2577 95.894 12.6341 96.2863 13.1332L95.3422 14.2256C95.007 13.8001 94.6392 13.4892 94.2388 13.2928C93.8464 13.0882 93.3886 12.9859 92.8655 12.9859C92.5222 12.9859 92.2361 13.0309 92.0073 13.1209C91.7866 13.211 91.623 13.3296 91.5168 13.4769C91.4188 13.6242 91.3697 13.7878 91.3697 13.9678C91.3697 14.1888 91.4555 14.377 91.6272 14.5324C91.7988 14.6797 92.0931 14.8025 92.51 14.9007L94.0181 15.2443C94.8192 15.4243 95.3913 15.6944 95.7346 16.0544C96.086 16.4063 96.2618 16.8645 96.2618 17.4291C96.2618 17.961 96.1228 18.4192 95.8449 18.8038C95.5671 19.1801 95.1787 19.4706 94.6802 19.6752C94.1816 19.8716 93.6093 19.9698 92.9636 19.9698C92.3996 19.9698 91.8805 19.9043 91.4065 19.7734C90.9406 19.6343 90.5237 19.4461 90.1559 19.2088C89.7881 18.9715 89.4815 18.6974 89.2363 18.3864L90.1927 17.245C90.3808 17.5068 90.6137 17.74 90.8915 17.9446C91.1694 18.1491 91.4842 18.3128 91.8356 18.4355C92.1954 18.5501 92.5713 18.6074 92.9636 18.6074C93.2989 18.6074 93.5808 18.5706 93.8096 18.4969C94.0468 18.4151 94.2223 18.3046 94.3368 18.1655C94.4595 18.0182 94.5208 17.8423 94.5208 17.6377C94.5208 17.425 94.4472 17.245 94.3001 17.0977C94.161 16.9422 93.8996 16.8236 93.5154 16.7417L91.8724 16.3735C91.3984 16.259 90.9896 16.1117 90.6463 15.9317C90.3111 15.7435 90.0536 15.5062 89.8739 15.2198C89.7022 14.9252 89.6164 14.5774 89.6164 14.1765C89.6164 13.6937 89.7471 13.2601 90.0088 12.8755C90.2704 12.4909 90.6463 12.1881 91.1368 11.9672C91.6353 11.7381 92.2321 11.6235 92.9268 11.6235Z" fill="#2B384C"/>
<path id="Vector_10" d="M104.827 19.8471H103.074L102.4 17.871H99.2977L98.6233 19.8471H96.8945L99.8494 11.7463H101.872L104.827 19.8471ZM99.6778 16.6191H102.02L100.843 13.0842L99.6778 16.6191Z" fill="#2B384C"/>
<path id="Vector_11" d="M112.191 11.7463L109.248 19.8471H107.274L104.319 11.7463H106.109L107.814 16.9014L108.28 18.497L108.733 16.9136L110.45 11.7463H112.191Z" fill="#2B384C"/>
<path id="Vector_12" d="M120.128 17.6132C119.972 18.1369 119.727 18.5747 119.392 18.9265C119.057 19.2783 118.661 19.5402 118.203 19.712C117.745 19.8839 117.242 19.9698 116.695 19.9698C115.894 19.9698 115.199 19.802 114.611 19.4665C114.03 19.1311 113.581 18.6524 113.262 18.0305C112.951 17.4086 112.796 16.664 112.796 15.7967C112.796 14.9293 112.951 14.1847 113.262 13.5628C113.581 12.9409 114.03 12.4623 114.611 12.1268C115.199 11.7913 115.886 11.6235 116.67 11.6235C117.226 11.6235 117.729 11.7013 118.178 11.8567C118.628 12.004 119.008 12.2331 119.319 12.5441C119.637 12.855 119.87 13.2478 120.018 13.7224L118.485 14.3729C118.346 13.8819 118.133 13.5342 117.847 13.3296C117.561 13.1168 117.193 13.0105 116.744 13.0105C116.303 13.0105 115.914 13.1168 115.579 13.3296C115.252 13.5424 114.999 13.8574 114.819 14.2747C114.639 14.6838 114.549 15.1911 114.549 15.7967C114.549 16.394 114.631 16.9013 114.794 17.3186C114.966 17.7359 115.215 18.051 115.542 18.2637C115.869 18.4765 116.27 18.5828 116.744 18.5828C117.185 18.5828 117.565 18.4642 117.884 18.2269C118.211 17.9896 118.44 17.6296 118.571 17.1468L120.128 17.6132Z" fill="#2B384C"/>
<path id="Vector_13" d="M128.521 11.7463V19.8471H126.829V11.7463H128.521ZM123.261 11.7463V19.8471H121.569V11.7463H123.261ZM127.712 15.0726V16.435H122.415V15.0726H127.712Z" fill="#2B384C"/>
<path id="Vector_14" d="M137.39 11.7463V16.6559C137.39 17.7605 137.095 18.5911 136.507 19.1475C135.918 19.6957 135.06 19.9698 133.932 19.9698C132.804 19.9698 131.946 19.6957 131.357 19.1475C130.769 18.5911 130.475 17.7605 130.475 16.6559V11.7463H132.167V16.5822C132.167 17.2614 132.31 17.7646 132.596 18.0919C132.89 18.4192 133.336 18.5829 133.932 18.5829C134.529 18.5829 134.97 18.4192 135.256 18.0919C135.543 17.7646 135.685 17.2614 135.685 16.5822V11.7463H137.39Z" fill="#2B384C"/>
<path id="Vector_15" d="M146.314 11.7463L142.612 15.9563L142.477 15.8213L140.454 18.1165L140.196 16.5454L144.353 11.7463H146.314ZM141.03 11.7463V19.8471H139.338V11.7463H141.03ZM143.077 14.5448L146.412 19.8471H144.475L141.778 15.4899L143.077 14.5448Z" fill="#2B384C"/>
<path id="Vector_16" d="M52.0985 25.634C52.4157 25.634 52.687 25.6884 52.9124 25.797C53.1378 25.9014 53.311 26.054 53.4321 26.2545C53.5573 26.4509 53.6199 26.6891 53.6199 26.969C53.6199 27.249 53.5573 27.4892 53.4321 27.6898C53.311 27.8862 53.1378 28.0387 52.9124 28.1473C52.687 28.2518 52.4157 28.304 52.0985 28.304H51.2283V29.7706H50.3643V25.634H52.0985ZM51.967 27.6209C52.2258 27.6209 52.4199 27.5665 52.5493 27.4579C52.6787 27.3451 52.7434 27.1821 52.7434 26.969C52.7434 26.7518 52.6787 26.5888 52.5493 26.4802C52.4199 26.3715 52.2258 26.3172 51.967 26.3172H51.2283V27.6209H51.967Z" fill="#2B384C"/>
<path id="Vector_17" d="M58.4567 25.634C58.9242 25.634 59.2915 25.7468 59.5586 25.9725C59.8257 26.1981 59.9593 26.5011 59.9593 26.8813C59.9593 27.2866 59.8257 27.5979 59.5586 27.8152C59.2915 28.0283 58.9262 28.1348 58.4629 28.1348L58.3753 28.1849H57.4862V29.7706H56.6348V25.634H58.4567ZM58.3565 27.5268C58.5986 27.5268 58.7781 27.4788 58.8949 27.3827C59.016 27.2824 59.0765 27.1299 59.0765 26.9252C59.0765 26.7204 59.016 26.57 58.8949 26.4739C58.7781 26.3736 58.5986 26.3235 58.3565 26.3235H57.4862V27.5268H58.3565ZM58.8636 27.7086L60.2035 29.7706H59.233L58.1249 27.9593L58.8636 27.7086Z" fill="#2B384C"/>
<path id="Vector_18" d="M64.8601 25.5715C65.2691 25.5715 65.6218 25.6572 65.9182 25.8285C66.2145 25.9998 66.442 26.2443 66.6006 26.5618C66.7634 26.8794 66.8448 27.2596 66.8448 27.7025C66.8448 28.1454 66.7634 28.5256 66.6006 28.8432C66.442 29.1608 66.2145 29.4052 65.9182 29.5765C65.6218 29.7478 65.2691 29.8335 64.8601 29.8335C64.4511 29.8335 64.0963 29.7478 63.7958 29.5765C63.4994 29.4052 63.2698 29.1608 63.1071 28.8432C62.9484 28.5256 62.8691 28.1454 62.8691 27.7025C62.8691 27.2596 62.9484 26.8794 63.1071 26.5618C63.2698 26.2443 63.4994 25.9998 63.7958 25.8285C64.0963 25.6572 64.4511 25.5715 64.8601 25.5715ZM64.8601 26.2798C64.6264 26.2798 64.4281 26.3341 64.2653 26.4427C64.1025 26.5514 63.9773 26.7122 63.8897 26.9253C63.8062 27.1343 63.7644 27.3933 63.7644 27.7025C63.7644 28.0075 63.8062 28.2666 63.8897 28.4797C63.9773 28.6928 64.1025 28.8536 64.2653 28.9623C64.4281 29.0709 64.6264 29.1252 64.8601 29.1252C65.0897 29.1252 65.2858 29.0709 65.4486 28.9623C65.6114 28.8536 65.7345 28.6928 65.818 28.4797C65.9057 28.2666 65.9495 28.0075 65.9495 27.7025C65.9495 27.3933 65.9057 27.1343 65.818 26.9253C65.7345 26.7122 65.6114 26.5514 65.4486 26.4427C65.2858 26.3341 65.0897 26.2798 64.8601 26.2798Z" fill="#2B384C"/>
<path id="Vector_19" d="M71.536 25.634C72.1829 25.634 72.6838 25.8137 73.0386 26.1731C73.3934 26.5282 73.5708 27.038 73.5708 27.7023C73.5708 28.3625 73.3934 28.8723 73.0386 29.2316C72.6838 29.591 72.1829 29.7706 71.536 29.7706H69.9395V25.634H71.536ZM71.4921 29.0812C71.8845 29.0812 72.1788 28.9642 72.3749 28.7302C72.5753 28.492 72.6754 28.1494 72.6754 27.7023C72.6754 27.2553 72.5753 26.9147 72.3749 26.6807C72.1788 26.4426 71.8845 26.3235 71.4921 26.3235H70.8034V29.0812H71.4921Z" fill="#2B384C"/>
<path id="Vector_20" d="M80.1122 25.634V28.1411C80.1122 28.7051 79.9619 29.1292 79.6614 29.4134C79.3609 29.6933 78.9226 29.8333 78.3466 29.8333C77.7706 29.8333 77.3324 29.6933 77.0318 29.4134C76.7313 29.1292 76.5811 28.7051 76.5811 28.1411V25.634H77.4451V28.1035C77.4451 28.4503 77.5181 28.7072 77.6642 28.8744C77.8144 29.0415 78.0419 29.1251 78.3466 29.1251C78.6513 29.1251 78.8767 29.0415 79.0228 28.8744C79.1689 28.7072 79.2419 28.4503 79.2419 28.1035V25.634H80.1122Z" fill="#2B384C"/>
<path id="Vector_21" d="M86.867 28.6301C86.7877 28.8975 86.6625 29.1211 86.4914 29.3007C86.3203 29.4804 86.1178 29.6141 85.8841 29.7019C85.6503 29.7896 85.3937 29.8335 85.114 29.8335C84.705 29.8335 84.3502 29.7478 84.0497 29.5765C83.7533 29.4052 83.5237 29.1608 83.361 28.8432C83.2023 28.5256 83.123 28.1454 83.123 27.7025C83.123 27.2596 83.2023 26.8794 83.361 26.5618C83.5237 26.2443 83.7533 25.9998 84.0497 25.8285C84.3502 25.6572 84.7008 25.5715 85.1015 25.5715C85.3853 25.5715 85.642 25.6112 85.8716 25.6906C86.1011 25.7658 86.2952 25.8828 86.4538 26.0416C86.6166 26.2004 86.7356 26.401 86.8107 26.6433L86.0281 26.9755C85.9571 26.7248 85.8486 26.5472 85.7025 26.4427C85.5564 26.3341 85.3686 26.2798 85.139 26.2798C84.9137 26.2798 84.7154 26.3341 84.5443 26.4427C84.3773 26.5514 84.2479 26.7122 84.1561 26.9253C84.0643 27.1343 84.0184 27.3933 84.0184 27.7025C84.0184 28.0075 84.0601 28.2666 84.1436 28.4797C84.2312 28.6928 84.3585 28.8536 84.5255 28.9623C84.6924 29.0709 84.897 29.1252 85.139 29.1252C85.3644 29.1252 85.5585 29.0647 85.7213 28.9435C85.8883 28.8223 86.0051 28.6385 86.0719 28.3919L86.867 28.6301Z" fill="#2B384C"/>
<path id="Vector_22" d="M93.0936 25.634V26.3298H91.71V29.7706H90.846V26.3298H89.4561V25.634H93.0936Z" fill="#2B384C"/>
<path id="Vector_23" d="M101.627 25.634C102.274 25.634 102.775 25.8137 103.129 26.1731C103.484 26.5282 103.662 27.038 103.662 27.7023C103.662 28.3625 103.484 28.8723 103.129 29.2316C102.775 29.591 102.274 29.7706 101.627 29.7706H100.03V25.634H101.627ZM101.583 29.0812C101.975 29.0812 102.27 28.9642 102.466 28.7302C102.666 28.492 102.766 28.1494 102.766 27.7023C102.766 27.2553 102.666 26.9147 102.466 26.6807C102.27 26.4426 101.975 26.3235 101.583 26.3235H100.894V29.0812H101.583Z" fill="#2B384C"/>
<path id="Vector_24" d="M106.753 29.7706V25.634H109.852V26.3298H107.617V27.3576H109.376V28.022H107.617V29.0749H109.94V29.7706H106.753Z" fill="#2B384C"/>
<path id="Vector_25" d="M114.447 25.5715C114.823 25.5715 115.152 25.6363 115.436 25.7658C115.72 25.8954 115.962 26.0876 116.162 26.3425L115.68 26.9003C115.509 26.683 115.321 26.5242 115.117 26.4239C114.917 26.3195 114.683 26.2673 114.416 26.2673C114.24 26.2673 114.094 26.2902 113.977 26.3362C113.865 26.3822 113.781 26.4427 113.727 26.518C113.677 26.5932 113.652 26.6767 113.652 26.7687C113.652 26.8815 113.696 26.9776 113.783 27.057C113.871 27.1322 114.021 27.1948 114.234 27.245L115.004 27.4205C115.413 27.5124 115.705 27.6503 115.881 27.8341C116.06 28.0138 116.15 28.2478 116.15 28.5361C116.15 28.8077 116.079 29.0417 115.937 29.2381C115.795 29.4303 115.597 29.5786 115.342 29.683C115.088 29.7833 114.796 29.8335 114.466 29.8335C114.178 29.8335 113.913 29.8 113.671 29.7332C113.433 29.6622 113.22 29.5661 113.032 29.4449C112.844 29.3237 112.688 29.1837 112.562 29.025L113.051 28.4421C113.147 28.5758 113.266 28.6949 113.408 28.7993C113.55 28.9038 113.71 28.9874 113.89 29.05C114.073 29.1085 114.265 29.1378 114.466 29.1378C114.637 29.1378 114.781 29.119 114.898 29.0814C115.019 29.0396 115.109 28.9832 115.167 28.9121C115.23 28.8369 115.261 28.7471 115.261 28.6426C115.261 28.534 115.223 28.4421 115.148 28.3669C115.077 28.2875 114.944 28.2269 114.748 28.1851L113.909 27.9971C113.666 27.9386 113.458 27.8634 113.282 27.7715C113.111 27.6754 112.98 27.5542 112.888 27.4079C112.8 27.2575 112.757 27.0799 112.757 26.8752C112.757 26.6287 112.823 26.4072 112.957 26.2108C113.09 26.0144 113.282 25.8598 113.533 25.747C113.788 25.63 114.092 25.5715 114.447 25.5715Z" fill="#2B384C"/>
<path id="Vector_26" d="M120.053 25.634V29.7706H119.189V25.634H120.053Z" fill="#2B384C"/>
<path id="Vector_27" d="M125.047 29.8335C124.667 29.8335 124.333 29.7499 124.045 29.5828C123.761 29.4156 123.54 29.1733 123.381 28.8557C123.223 28.5382 123.144 28.1559 123.144 27.7088C123.144 27.2659 123.227 26.8856 123.394 26.5681C123.561 26.2464 123.797 25.9998 124.101 25.8285C124.41 25.6572 124.767 25.5715 125.172 25.5715C125.619 25.5715 125.98 25.6551 126.255 25.8222C126.531 25.9852 126.75 26.2401 126.913 26.5869L126.111 26.9316C126.044 26.7102 125.93 26.5472 125.767 26.4427C125.608 26.3341 125.412 26.2798 125.178 26.2798C124.945 26.2798 124.742 26.3362 124.571 26.449C124.4 26.5576 124.268 26.7185 124.177 26.9316C124.085 27.1405 124.039 27.3975 124.039 27.7025C124.039 28.0159 124.083 28.2812 124.17 28.4985C124.258 28.7116 124.387 28.8725 124.559 28.9811C124.734 29.0855 124.949 29.1378 125.203 29.1378C125.341 29.1378 125.468 29.1211 125.585 29.0876C125.706 29.0542 125.811 29.0041 125.898 28.9372C125.986 28.8704 126.055 28.7847 126.105 28.6802C126.155 28.5758 126.18 28.4546 126.18 28.3167V28.2227H125.097V27.5897H126.925V29.7708H126.318L126.255 28.8683L126.405 28.9748C126.314 29.2506 126.151 29.4637 125.917 29.6141C125.688 29.7603 125.397 29.8335 125.047 29.8335Z" fill="#2B384C"/>
<path id="Vector_28" d="M133.648 25.634V29.7706H132.658L131.212 27.3388L130.855 26.6619H130.849L130.874 27.3764V29.7706H130.098V25.634H131.081L132.527 28.0596L132.884 28.7427H132.896L132.871 28.0283V25.634H133.648Z" fill="#2B384C"/>
<path id="Vector_29" d="M136.948 29.7706V25.634H140.047V26.3298H137.812V27.3576H139.572V28.022H137.812V29.0749H140.135V29.7706H136.948Z" fill="#2B384C"/>
<path id="Vector_30" d="M144.955 25.634C145.422 25.634 145.789 25.7468 146.057 25.9725C146.324 26.1981 146.458 26.5011 146.458 26.8813C146.458 27.2866 146.324 27.5979 146.057 27.8152C145.789 28.0283 145.424 28.1348 144.961 28.1348L144.873 28.1849H143.984V29.7706H143.133V25.634H144.955ZM144.855 27.5268C145.097 27.5268 145.276 27.4788 145.393 27.3827C145.514 27.2824 145.575 27.1299 145.575 26.9252C145.575 26.7204 145.514 26.57 145.393 26.4739C145.276 26.3736 145.097 26.3235 144.855 26.3235H143.984V27.5268H144.855ZM145.362 27.7086L146.702 29.7706H145.731L144.623 27.9593L145.362 27.7086Z" fill="#2B384C"/>
</g>
<defs>
<linearGradient id="paint0_linear_1702_34" x1="17.948" y1="7.57324" x2="24.2216" y2="36.8712" gradientUnits="userSpaceOnUse">
<stop stop-color="#FF31EA"/>
<stop offset="1" stop-color="#13EBE3"/>
</linearGradient>
<clipPath id="clip0_1702_34">
<rect width="156" height="41" fill="white"/>
</clipPath>
</defs>
</svg>
