<svg width="18" height="19" viewBox="0 0 18 19" fill="none" xmlns="http://www.w3.org/2000/svg">
<g id="Social">
<path id="Vector" d="M7.26306 8.52956C7.26306 8.52956 8.96616 8.40476 8.96616 6.43349C8.96616 4.46208 7.57281 3.5 5.80784 3.5H0V14.5165H5.80784C5.80784 14.5165 9.35331 14.627 9.35331 11.2649C9.35331 11.265 9.50788 8.52956 7.26306 8.52956ZM5.38979 5.45806H5.80784C5.80784 5.45806 6.59729 5.45806 6.59729 6.60428C6.59729 7.75036 6.13301 7.91652 5.60639 7.91652H2.55901V5.45806H5.38979ZM5.64372 12.5585H2.55901V9.61449H5.80784C5.80784 9.61449 6.98448 9.59926 6.98448 11.1274C6.98448 12.416 6.10564 12.5488 5.64372 12.5585ZM14.0818 6.30292C9.78963 6.30292 9.79344 10.5358 9.79344 10.5358C9.79344 10.5358 9.49894 14.7469 14.0818 14.7469C14.0818 14.7469 17.9008 14.9623 17.9008 11.8175H15.9368C15.9368 11.8175 16.0023 13.0018 14.1473 13.0018C14.1473 13.0018 12.1829 13.1317 12.1829 11.0851H17.9663C17.9663 11.0851 18.5991 6.30292 14.0818 6.30292ZM12.1613 9.61449C12.1613 9.61449 12.4012 7.91649 14.1254 7.91649C15.8494 7.91649 15.8278 9.61449 15.8278 9.61449H12.1613ZM16.2853 5.50561H11.6805V4.14901H16.2853V5.50561Z" fill="#697484"/>
</g>
</svg>
