<svg xmlns="http://www.w3.org/2000/svg" width="19" height="19" viewBox="0 0 19 19" fill="none">
<g clip-path="url(#clip0_1555_176)">
<path d="M7.76306 8.52956C7.76306 8.52956 9.46616 8.40476 9.46616 6.43349C9.46616 4.46208 8.07281 3.5 6.30784 3.5H0.5V14.5165H6.30784C6.30784 14.5165 9.85331 14.627 9.85331 11.2649C9.85331 11.265 10.0079 8.52956 7.76306 8.52956ZM5.88979 5.45806H6.30784C6.30784 5.45806 7.09729 5.45806 7.09729 6.60428C7.09729 7.75036 6.63301 7.91652 6.10639 7.91652H3.05901V5.45806H5.88979ZM6.14372 12.5585H3.05901V9.61449H6.30784C6.30784 9.61449 7.48448 9.59926 7.48448 11.1274C7.48448 12.416 6.60564 12.5488 6.14372 12.5585ZM14.5818 6.30292C10.2896 6.30292 10.2934 10.5358 10.2934 10.5358C10.2934 10.5358 9.99894 14.7469 14.5818 14.7469C14.5818 14.7469 18.4008 14.9623 18.4008 11.8175H16.4368C16.4368 11.8175 16.5023 13.0018 14.6473 13.0018C14.6473 13.0018 12.6829 13.1317 12.6829 11.0851H18.4663C18.4663 11.0851 19.0991 6.30292 14.5818 6.30292ZM12.6613 9.61449C12.6613 9.61449 12.9012 7.91649 14.6254 7.91649C16.3494 7.91649 16.3278 9.61449 16.3278 9.61449H12.6613ZM16.7853 5.50561H12.1805V4.14901H16.7853V5.50561Z" fill="#697484"/>
</g>
<defs>
<clipPath id="clip0_1555_176">
<rect width="18" height="18" fill="white" transform="translate(0.5 0.5)"/>
</clipPath>
</defs>
</svg>