<svg xmlns="http://www.w3.org/2000/svg" width="19" height="19" viewBox="0 0 19 19" fill="none">
<g clip-path="url(#clip0_1555_167)">
<path d="M0.5 9.5C0.5 7.86799 0.902012 6.36201 1.706 4.982C2.51001 3.60199 3.60201 2.51001 4.982 1.706C6.36201 0.901994 7.86801 0.5 9.5 0.5C11.132 0.5 12.638 0.901994 14.018 1.706C15.398 2.51001 16.49 3.60199 17.294 4.982C18.098 6.36201 18.5 7.86799 18.5 9.5C18.5 11.132 18.098 12.638 17.294 14.018C16.49 15.398 15.398 16.49 14.018 17.294C12.638 18.098 11.132 18.5 9.5 18.5C7.86801 18.5 6.36201 18.098 4.982 17.294C3.60201 16.49 2.51001 15.398 1.706 14.018C0.902012 12.638 0.5 11.132 0.5 9.5ZM1.994 9.5C1.994 11.372 2.624 13.022 3.884 14.45C4.46 13.322 5.37201 12.248 6.62 11.228C7.86801 10.208 9.086 9.56601 10.274 9.302C10.094 8.88201 9.92001 8.50401 9.752 8.168C7.68801 8.82801 5.45601 9.158 3.056 9.158C2.588 9.158 2.24001 9.15201 2.012 9.14C2.012 9.18801 2.00901 9.248 2.003 9.32C1.99701 9.392 1.994 9.45199 1.994 9.5ZM2.228 7.646C2.49201 7.66999 2.88201 7.682 3.398 7.682C5.40201 7.682 7.304 7.412 9.104 6.872C8.19201 5.252 7.19001 3.902 6.098 2.822C5.15001 3.30201 4.33701 3.96801 3.659 4.82C2.98101 5.67199 2.50401 6.61401 2.228 7.646ZM4.91 15.422C6.26601 16.478 7.79601 17.006 9.5 17.006C10.388 17.006 11.27 16.838 12.146 16.502C11.906 14.45 11.438 12.464 10.742 10.544C9.63801 10.784 8.52501 11.39 7.403 12.362C6.28101 13.334 5.45 14.354 4.91 15.422ZM7.664 2.246C8.72001 3.33801 9.698 4.69999 10.598 6.332C12.23 5.648 13.46 4.77801 14.288 3.722C12.896 2.57 11.3 1.994 9.5 1.994C8.888 1.994 8.276 2.07801 7.664 2.246ZM11.246 7.61C11.426 7.99399 11.63 8.47999 11.858 9.068C12.746 8.98399 13.712 8.942 14.756 8.942C15.5 8.942 16.238 8.96 16.97 8.996C16.874 7.36399 16.286 5.91201 15.206 4.64C14.426 5.80401 13.106 6.79401 11.246 7.61ZM12.308 10.328C12.92 12.104 13.334 13.928 13.55 15.8C14.498 15.188 15.272 14.402 15.872 13.442C16.472 12.482 16.832 11.444 16.952 10.328C16.076 10.268 15.278 10.238 14.558 10.238C13.898 10.238 13.148 10.268 12.308 10.328Z" fill="#697484"/>
</g>
<defs>
<clipPath id="clip0_1555_167">
<rect width="18" height="18" fill="white" transform="translate(0.5 0.5)"/>
</clipPath>
</defs>
</svg>